<?xml version="1.0" encoding="UTF-8"?>
<svg width="800px" height="600px" viewBox="0 0 800 600" version="1.1" xmlns="http://www.w3.org/2000/svg">
    <defs>
        <linearGradient x1="50%" y1="0%" x2="50%" y2="100%" id="gradient">
            <stop stop-color="#EF4444" offset="0%"/>
            <stop stop-color="#991B1B" offset="100%"/>
        </linearGradient>
    </defs>
    <g stroke="none" stroke-width="1" fill="none" fill-rule="evenodd">
        <path d="M400,50 L700,200 L700,500 L400,650 L100,500 L100,200 Z" fill="url(#gradient)" opacity="0.1"/>
        <path d="M400,100 L650,225 L650,475 L400,600 L150,475 L150,225 Z" fill="url(#gradient)" opacity="0.2"/>
        <path d="M400,150 L600,250 L600,450 L400,550 L200,450 L200,250 Z" fill="url(#gradient)" opacity="0.3"/>
        <g transform="translate(300,200)">
            <path d="M100,20 L180,60 L180,160 L100,200 L20,160 L20,60 Z" stroke="#EF4444" stroke-width="4" fill="none"/>
            <path d="M100,40 L160,70 L160,150 L100,180 L40,150 L40,70 Z" fill="#EF4444" opacity="0.1"/>
            <circle cx="100" cy="110" r="25" stroke="#EF4444" stroke-width="4" fill="none"/>
            <path d="M90,110 L100,120 L115,105" stroke="#EF4444" stroke-width="4" stroke-linecap="round" stroke-linejoin="round"/>
        </g>
    </g>
</svg>
